<?xml version="1.0" standalone="no"?>
<!DOCTYPE svg PUBLIC "-//W3C//DTD SVG 20010904//EN"
 "http://www.w3.org/TR/2001/REC-SVG-20010904/DTD/svg10.dtd">
<svg version="1.0" xmlns="http://www.w3.org/2000/svg"
 width="192.000000pt" height="178.000000pt" viewBox="0 0 192.000000 178.000000"
 preserveAspectRatio="xMidYMid meet">

<g transform="translate(0.000000,178.000000) scale(0.100000,-0.100000)"
fill="#000000" stroke="none">
<path d="M1444 1760 c-12 -5 -25 -17 -29 -27 -9 -23 -25 -420 -18 -442 19 -53
79 -69 107 -29 13 19 16 59 16 236 0 126 -4 221 -10 232 -15 27 -41 39 -66 30z"/>
<path d="M404 1709 c-17 -19 -19 -39 -22 -214 -3 -162 -1 -199 13 -224 20 -40
64 -43 93 -6 19 24 20 37 15 218 -3 110 -10 203 -17 217 -15 33 -56 38 -82 9z"/>
<path d="M239 1031 l-31 -31 4 -106 c4 -136 11 -144 135 -144 76 0 86 2 108
25 23 22 25 31 25 124 0 91 -2 102 -24 128 -22 25 -31 28 -105 31 -79 4 -81 3
-112 -27z"/>
<path d="M692 1043 c-28 -11 -42 -62 -42 -151 0 -75 3 -93 21 -116 19 -25 25
-26 114 -26 126 0 145 20 145 146 0 79 -20 131 -55 144 -27 10 -160 13 -183 3z"/>
<path d="M1117 1040 c-33 -21 -47 -66 -47 -150 0 -84 15 -132 45 -144 9 -3 52
-6 96 -6 71 0 83 3 104 24 29 29 39 76 33 161 -3 55 -8 70 -31 93 -24 24 -36
27 -105 30 -42 1 -85 -2 -95 -8z"/>
<path d="M1537 1028 c-25 -20 -37 -63 -37 -138 0 -128 20 -149 137 -150 72 0
85 3 110 24 27 24 28 27 28 124 0 92 -2 102 -24 126 -23 24 -31 26 -111 26
-53 0 -92 -5 -103 -12z"/>
<path d="M243 573 c-31 -25 -43 -64 -43 -139 0 -73 18 -127 48 -143 27 -14
154 -14 186 0 37 17 48 57 45 158 -5 122 -17 135 -132 139 -67 2 -86 -1 -104
-15z"/>
<path d="M680 555 c-42 -45 -41 -214 1 -256 16 -16 33 -19 109 -19 76 0 93 3
109 19 26 26 34 74 29 162 -3 63 -7 74 -31 95 -25 21 -38 24 -111 24 -76 0
-85 -2 -106 -25z"/>
<path d="M1109 561 c-22 -18 -24 -28 -27 -123 -3 -94 -2 -106 18 -131 22 -27
24 -28 117 -25 91 3 97 4 116 30 14 18 22 48 25 88 6 79 -4 127 -33 156 -22
22 -33 24 -108 24 -69 0 -89 -4 -108 -19z m134 -42 c8 -21 17 -29 29 -26 37
10 49 -53 13 -67 -11 -4 -13 -17 -8 -54 7 -58 -6 -72 -44 -46 -26 16 -27 16
-48 -10 -37 -47 -64 -22 -45 44 8 26 6 37 -5 50 -24 26 -19 57 10 64 16 4 30
19 39 41 18 43 44 45 59 4z"/>
</g>
</svg>
