<?xml version="1.0" standalone="no"?>
<!DOCTYPE svg PUBLIC "-//W3C//DTD SVG 20010904//EN"
 "http://www.w3.org/TR/2001/REC-SVG-20010904/DTD/svg10.dtd">
<svg version="1.0" xmlns="http://www.w3.org/2000/svg"
 width="138.000000pt" height="213.000000pt" viewBox="0 0 138.000000 213.000000"
 preserveAspectRatio="xMidYMid meet">

<g transform="translate(0.000000,213.000000) scale(0.100000,-0.100000)"
fill="#000000" stroke="none">
<path d="M554 2076 c-214 -69 -359 -230 -401 -445 -29 -146 3 -284 88 -376 59
-64 122 -107 204 -139 94 -37 111 -49 125 -91 19 -58 -12 -105 -127 -195 -125
-97 -306 -276 -368 -363 -45 -64 -47 -70 -34 -94 8 -15 48 -61 90 -104 276
-282 649 -329 964 -121 78 52 211 183 240 235 l18 34 -62 90 c-81 118 -222
254 -331 318 -47 27 -95 59 -107 72 -40 39 -24 126 29 154 10 5 52 18 92 29
118 30 199 92 284 217 65 95 77 134 77 243 -1 257 -180 479 -440 545 -93 23
-254 19 -341 -9z"/>
</g>
</svg>
